<svg width="33" height="32" viewBox="0 0 33 32" fill="none" xmlns="http://www.w3.org/2000/svg">
<path d="M16.5117 32C25.3483 32 32.5117 24.8366 32.5117 16C32.5117 7.16344 25.3483 0 16.5117 0C7.67516 0 0.511719 7.16344 0.511719 16C0.511719 24.8366 7.67516 32 16.5117 32Z" fill="black"/>
<path d="M21.9746 8.93066H11.048C9.03896 8.93066 7.7656 11.0978 8.77631 12.8497L15.5199 24.5382C15.9599 25.3014 17.0627 25.3014 17.5028 24.5382L24.2477 12.8497C25.257 11.1006 23.9837 8.93066 21.976 8.93066H21.9746ZM15.5144 21.033L14.0457 18.1907L10.5021 11.8528C10.2683 11.4471 10.5571 10.9273 11.0466 10.9273H15.513V21.0344L15.5144 21.033ZM22.5178 11.8514L18.9755 18.1921L17.5069 21.033V10.926H21.9733C22.4628 10.926 22.7516 11.4457 22.5178 11.8514Z" fill="white"/>
</svg>
